<svg width="18" height="18" viewBox="0 0 18 18" fill="none" xmlns="http://www.w3.org/2000/svg">
<g id="Group 8399">
<path id="Vector" d="M17.5797 12.0487L9.62256 17.2614C9.23893 17.5127 8.76072 17.5127 8.37708 17.2614L0.420336 12.0487C-0.140112 11.6815 -0.140112 10.7882 0.420336 10.4211L8.37744 5.20801C8.76107 4.9567 9.23893 4.9567 9.62256 5.20801L17.5797 10.4211C18.1401 10.7882 18.1401 11.6815 17.5797 12.0487Z" fill="#FFD04D"/>
<path id="Vector_2" d="M17.5797 7.57882L9.62256 12.7915C9.23893 13.0428 8.76072 13.0428 8.37708 12.7915L0.420336 7.57882C-0.140112 7.21169 -0.140112 6.31836 0.420336 5.95123L8.37744 0.738528C8.76107 0.487223 9.23893 0.487223 9.62256 0.738528L17.5797 5.95159C18.1401 6.31872 18.1401 7.21205 17.5797 7.57917V7.57882Z" fill="#313135"/>
</g>
</svg>
