<svg width="17" height="18" viewBox="0 0 17 18" fill="none" xmlns="http://www.w3.org/2000/svg">
<g id="Group 8406">
<path id="Vector" d="M16.2256 11.5198V15.2659C16.2256 16.4467 15.4765 17.4682 14.4229 17.8452C14.0404 17.71 13.6975 17.4906 13.4165 17.2092C12.9281 16.7204 12.6257 16.0456 12.6257 15.2999V10.7996H15.5057C15.9033 10.7996 16.2256 11.1222 16.2256 11.5198Z" fill="#FFD04D"/>
<path id="Vector_2" d="M14.4229 17.8452C14.4198 17.8459 14.4171 17.8469 14.4143 17.8483C14.1457 17.9432 13.8574 17.9962 13.5568 17.9997H13.5255L2.72558 18C1.23452 18 0.0255127 16.7913 0.0255127 15.2999V0.719904C0.0255127 0.322288 0.347801 0 0.74576 0H11.9058C12.3034 0 12.6257 0.322288 12.6257 0.719904V15.2999C12.6257 16.0456 12.9281 16.7205 13.4165 17.2092C13.6975 17.4906 14.0404 17.71 14.4229 17.8452Z" fill="#313135"/>
<g id="Group">
<path id="Vector_3" d="M10.3759 7.20007H2.2757C2.02723 7.20007 1.82581 7.4015 1.82581 7.64997V7.65031C1.82581 7.89878 2.02723 8.10021 2.2757 8.10021H10.3759C10.6244 8.10021 10.8258 7.89878 10.8258 7.65031V7.64997C10.8258 7.4015 10.6244 7.20007 10.3759 7.20007Z" fill="#FFD04D"/>
<path id="Vector_4" d="M10.3759 9H2.2757C2.02723 9 1.82581 9.20143 1.82581 9.4499V9.45024C1.82581 9.69871 2.02723 9.90014 2.2757 9.90014H10.3759C10.6244 9.90014 10.8258 9.69871 10.8258 9.45024V9.4499C10.8258 9.20143 10.6244 9 10.3759 9Z" fill="#FFD04D"/>
<path id="Vector_5" d="M5.87591 10.7999H2.2757C2.02723 10.7999 1.82581 11.0014 1.82581 11.2498V11.2502C1.82581 11.4986 2.02723 11.7001 2.2757 11.7001H5.87591C6.12438 11.7001 6.32581 11.4986 6.32581 11.2502V11.2498C6.32581 11.0014 6.12438 10.7999 5.87591 10.7999Z" fill="#FFD04D"/>
</g>
<path id="Vector_6" d="M10.2204 1.79993H2.43117C2.09684 1.79993 1.82581 2.07096 1.82581 2.40529V4.79442C1.82581 5.12876 2.09684 5.39979 2.43117 5.39979H10.2204C10.5548 5.39979 10.8258 5.12876 10.8258 4.79442V2.40529C10.8258 2.07096 10.5548 1.79993 10.2204 1.79993Z" fill="#FFD04D"/>
</g>
</svg>
