<svg width="14" height="20" viewBox="0 0 14 20" fill="none" xmlns="http://www.w3.org/2000/svg">
<g id="Group 8402">
<path id="Vector" d="M12.8377 19.9999H1.16223C0.630954 19.9999 0.199951 19.5787 0.199951 19.059V4.5059C0.199951 4.50343 0.201007 4.50132 0.202766 4.49955L4.79708 0.00234737C4.79708 0.00234737 4.80131 -0.00012207 4.80342 -0.00012207H12.8377C13.3689 -0.00012207 13.8 0.421094 13.8 0.940735V19.0594C13.8 19.579 13.3693 20.0002 12.8377 20.0002V19.9999Z" fill="#313135"/>
<path id="Vector_2" d="M4.7999 -0.00012207V3.5848C4.7999 4.09139 4.3798 4.50237 3.86154 4.50237H0.199951L4.7999 -0.00012207Z" fill="#FFD04D"/>
<circle id="Ellipse 14" cx="6.99991" cy="8.96146" r="1.50003" fill="#FFD04D"/>
<path id="Ellipse 15" d="M9.38498 13.4478C9.83506 13.4478 10.205 13.0576 9.95634 12.6824C9.79553 12.4397 9.55982 12.2193 9.26267 12.0335C8.96552 11.8478 8.61276 11.7005 8.22451 11.6C7.83627 11.4995 7.42016 11.4478 6.99993 11.4478C6.5797 11.4478 6.16358 11.4995 5.77534 11.6C5.3871 11.7005 5.03433 11.8478 4.73718 12.0335C4.44004 12.2193 4.20433 12.4397 4.04351 12.6824C3.79487 13.0576 4.16479 13.4478 4.61487 13.4478L6.99993 13.4478H9.38498Z" fill="#FFD04D"/>
</g>
</svg>
