<svg width="18" height="20" viewBox="0 0 18 20" fill="none" xmlns="http://www.w3.org/2000/svg">
<g id="Group 1321316131">
<path id="Vector" d="M14.2213 19.1479L14.2092 19.15C14.2121 19.1486 14.2149 19.1476 14.2181 19.1469C14.2192 19.1472 14.2202 19.1476 14.2213 19.1479Z" fill="#313135"/>
<path id="Vector_2" d="M17.2066 0.849976H7.79501C7.35688 0.849976 7.00171 1.20508 7.00171 1.64311V17.0513C7.00171 17.4893 7.35688 17.8444 7.79501 17.8444H17.2066C17.6448 17.8444 17.9999 17.4893 17.9999 17.0513V1.64311C17.9999 1.20508 17.6448 0.849976 17.2066 0.849976Z" fill="#313135"/>
<path id="Vector_3" d="M16.2068 1.84973H6.79476C6.35664 1.84973 6.00146 2.20483 6.00146 2.64287V18.051C6.00146 18.4891 6.35664 18.8442 6.79476 18.8442H16.2068C16.6449 18.8442 17.0001 18.4891 17.0001 18.051V2.64287C17.0001 2.20483 16.6449 1.84973 16.2068 1.84973Z" fill="#313135"/>
<path id="Vector_4" d="M17.9996 1.64311V17.0513C17.9996 17.4893 17.6444 17.8444 17.2063 17.8444H16.9999V2.64256C16.9999 2.20455 16.6447 1.84977 16.2066 1.84977H7.00171V1.64311C7.00171 1.20511 7.35656 0.849976 7.79465 0.849976H17.2063C17.6444 0.849976 17.9996 1.20511 17.9996 1.64311Z" fill="#FFD04D"/>
<path id="Vector_5" d="M8.48713 10.3232H0.47619C0.213051 10.3232 0 10.1102 0 9.84707C0 9.58398 0.213051 9.37097 0.47619 9.37097H8.48713C8.75027 9.37097 8.96332 9.58398 8.96332 9.84707C8.96332 10.1102 8.75027 10.3232 8.48713 10.3232Z" fill="#FFD04D"/>
<path id="Vector_6" d="M4.00141 13.3222C3.89242 13.3222 3.78272 13.2848 3.69312 13.2087L0.167549 10.2096C0.0613757 10.1193 0 9.98673 0 9.84708C0 9.70742 0.0613757 9.57482 0.167549 9.48454L3.69312 6.4855C3.89347 6.31517 4.194 6.3395 4.36437 6.53946C4.53474 6.73977 4.51041 7.04024 4.31041 7.21058L1.21129 9.84708L4.31041 12.4836C4.51076 12.6539 4.5351 12.9544 4.36437 13.1547C4.27019 13.2654 4.13616 13.3222 4.00141 13.3222Z" fill="#FFD04D"/>
</g>
</svg>
