<svg width="14" height="18" viewBox="0 0 14 18" fill="none" xmlns="http://www.w3.org/2000/svg">
<g id="Group 1321316130">
<path id="Vector" d="M12.1811 17.8882L7.47086 15.4487C7.18578 15.3013 6.81462 15.3013 6.52954 15.4487L1.8193 17.8882C1.25514 18.1803 0.5 17.8663 0.5 17.3396V0.659337C0.4996 0.295273 0.879574 0 1.34804 0H12.6516C13.1204 0 13.5 0.295273 13.5 0.659337V17.3396C13.5 17.8663 12.7445 18.1803 12.1807 17.8882H12.1811Z" fill="#313135"/>
<ellipse id="Ellipse 14" cx="7.00003" cy="6.30765" rx="1.50003" ry="1.50003" fill="#FFD04D"/>
<path id="Ellipse 15" d="M9.38511 10.7939C9.83519 10.7939 10.2051 10.4037 9.95646 10.0286C9.79565 9.78593 9.55994 9.56545 9.26279 9.37973C8.96564 9.19401 8.61288 9.0467 8.22464 8.94619C7.83639 8.84568 7.42028 8.79395 7.00005 8.79395C6.57982 8.79395 6.1637 8.84568 5.77546 8.94619C5.38722 9.0467 5.03445 9.19401 4.73731 9.37973C4.44016 9.56545 4.20445 9.78593 4.04363 10.0286C3.79499 10.4037 4.16491 10.7939 4.61499 10.7939L7.00005 10.7939H9.38511Z" fill="#FFD04D"/>
</g>
</svg>
