<svg width="24" height="24" viewBox="0 0 24 24" fill="none" xmlns="http://www.w3.org/2000/svg">
<g id="&#235;&#167;&#158;&#236;&#182;&#164; &#236;&#158;&#165;&#237;&#149;&#153;&#234;&#184;&#136;">
<path id="Vector" d="M21.7397 9.77907C22.4212 12.1129 21.7107 14.3233 20.2428 15.7831C19.1573 16.8627 17.657 17.5305 16.0003 17.5305H8.00039C7.23063 17.5305 6.49509 17.3863 5.81917 17.1236L4.48743 17.7858L3.28411 18.3835C3.1684 18.441 3.03646 18.3414 3.06115 18.2151L3.31939 16.9027L3.57691 15.5961C2.59725 14.5344 2 13.1195 2 11.5651C2 9.91762 2.67134 8.42696 3.75754 7.34702C4.84338 6.26744 6.34339 5.59998 8.00039 5.59998H16.0836C18.498 5.59998 21.0662 7.47399 21.7393 9.77907H21.7397Z" fill="#313135"/>
<path id="Vector_2" d="M12.1523 9.00993L12.7703 10.2551C12.795 10.3049 12.8427 10.3392 12.8981 10.3473L14.2799 10.5469C14.4189 10.5669 14.4746 10.737 14.3737 10.8345L13.3736 11.8036C13.3337 11.8422 13.3154 11.8983 13.3249 11.953L13.5609 13.3213C13.5846 13.4591 13.4392 13.564 13.3147 13.4991L12.0786 12.853C12.0292 12.8271 11.9703 12.8271 11.9205 12.853L10.6844 13.4991C10.5598 13.564 10.4145 13.4591 10.4381 13.3213L10.6741 11.953C10.6837 11.8983 10.6653 11.8425 10.6255 11.8036L9.62534 10.8345C9.5248 10.737 9.58019 10.5669 9.71918 10.5469L11.101 10.3473C11.1564 10.3392 11.204 10.3049 11.2287 10.2551L11.8468 9.00993C11.9089 8.88471 12.0888 8.88471 12.1509 9.00993H12.1523Z" fill="#FFD04D"/>
</g>
</svg>
