<svg width="68" height="57" viewBox="0 0 68 57" fill="none" xmlns="http://www.w3.org/2000/svg">
<g id="Group">
<path id="Vector" d="M10.9536 27.0874L32.1868 14.4468C33.205 13.8384 34.484 13.8384 35.5146 14.4468L56.7478 27.0874C57.4928 27.5344 57.8653 28.2919 57.8653 29.0617V41.1187C57.8653 41.8886 57.4928 42.646 56.7478 43.093L35.5146 55.7336C34.4964 56.342 33.2174 56.342 32.1868 55.7336L10.9536 43.093C10.2086 42.646 9.83607 41.8886 9.83607 41.1187V29.0617C9.83607 28.2919 10.2086 27.5344 10.9536 27.0874Z" fill="url(#paint0_linear_1873_10383)"/>
<path id="Vector_2" opacity="0.7" d="M2.46033 24.2686L31.7025 41.6649C33.1181 42.5093 34.8689 42.5093 36.2845 41.6649L65.5267 24.2686C67.5879 23.0393 67.5879 20.0592 65.5267 18.8423L36.2845 1.44602C34.8689 0.601654 33.1181 0.601654 31.715 1.44602L2.47274 18.8423C0.41151 20.0716 0.41151 23.0517 2.47274 24.2686H2.46033Z" fill="url(#paint1_linear_1873_10383)"/>
</g>
<defs>
<linearGradient id="paint0_linear_1873_10383" x1="7.44268" y1="35.531" x2="60.2587" y2="35.531" gradientUnits="userSpaceOnUse">
<stop stop-color="#E4E4E7"/>
<stop offset="0.59" stop-color="#18181B"/>
</linearGradient>
<linearGradient id="paint1_linear_1873_10383" x1="42.7041" y1="39.6161" x2="19.0868" y2="-9.33201" gradientUnits="userSpaceOnUse">
<stop offset="0.25" stop-color="#E4E4E7"/>
<stop offset="0.77" stop-color="#18181B"/>
</linearGradient>
</defs>
</svg>
