<svg width="139" height="32" viewBox="0 0 139 32" fill="none" xmlns="http://www.w3.org/2000/svg">
<g id="Group 18">
<path id="Vector" d="M80.5763 31.9443C80.4417 31.9443 80.303 31.9285 80.1684 31.8968C79.6099 31.7661 79.1663 31.3819 78.9484 30.8828C78.5127 29.9757 69.8344 12.635 66.4993 5.97277C66.0597 5.09345 66.4162 4.02005 67.2955 3.58039C68.1748 3.14073 69.2482 3.49721 69.6879 4.37653C69.6879 4.37653 72.809 10.611 75.9302 16.8533C77.4908 19.9745 79.0514 23.0957 80.2238 25.4405C80.3506 25.698 80.4733 25.9356 80.5843 26.1654L91.4688 4.38049C91.9084 3.50118 92.9779 3.14074 93.8611 3.58435C94.7405 4.02401 95.0969 5.09345 94.6573 5.97673L82.1726 30.962C81.8676 31.5759 81.2418 31.9483 80.5803 31.9483L80.5763 31.9443Z" fill="#313135"/>
<path id="Vector_2" d="M62.4671 5.20867C62.4671 4.22428 61.6691 3.42627 60.6847 3.42627C59.7004 3.42627 58.9023 4.22428 58.9023 5.20867V30.1623C58.9023 31.1466 59.7004 31.9446 60.6847 31.9446C61.6691 31.9446 62.4671 31.1466 62.4671 30.1623V5.20867Z" fill="#313135"/>
<path id="Vector_3" d="M119.922 12.5085C119.922 11.4629 119.074 10.6152 118.029 10.6152C116.983 10.6152 116.135 11.4629 116.135 12.5085V30.0513C116.135 31.0969 116.983 31.9446 118.029 31.9446C119.074 31.9446 119.922 31.0969 119.922 30.0513V12.5085Z" fill="#FAB00E"/>
<path id="Vector_4" d="M24.4307 3.94911C24.106 3.62431 23.6623 3.42627 23.1712 3.42627C22.1849 3.42627 21.3888 4.22241 21.3888 5.20867V19.4679C21.3888 24.3833 17.3923 28.3799 12.4768 28.3799C7.56133 28.3799 3.5648 24.3833 3.5648 19.4679V5.20867C3.5648 4.71752 3.36675 4.26994 3.04196 3.94911C2.71717 3.62431 2.27355 3.42627 1.7824 3.42627C0.796138 3.42627 0 4.22241 0 5.20867V19.4679C0 22.8703 1.35858 25.9558 3.5648 28.2056C5.83042 30.5108 8.98725 31.9446 12.4768 31.9446C15.9663 31.9446 19.1232 30.5108 21.3888 28.2056C23.595 25.9558 24.9536 22.8703 24.9536 19.4679V5.20867C24.9536 4.71752 24.7555 4.26994 24.4307 3.94911Z" fill="#313135"/>
<path id="Vector_5" d="M52.9809 31.4218C52.6561 31.7466 52.2124 31.9446 51.7213 31.9446C50.735 31.9446 49.9389 31.1485 49.9389 30.1623V15.9031C49.9389 10.9876 45.9424 6.99107 41.0269 6.99107C36.1114 6.99107 32.1149 10.9876 32.1149 15.9031V30.1623C32.1149 30.6534 31.9169 31.101 31.5921 31.4218C31.2673 31.7466 30.8237 31.9446 30.3325 31.9446C29.3462 31.9446 28.5501 31.1485 28.5501 30.1623V15.9031C28.5501 12.5007 29.9087 9.41513 32.1149 7.16535C34.3805 4.86011 37.5374 3.42627 41.0269 3.42627C44.5164 3.42627 47.6733 4.86011 49.9389 7.16535C52.1451 9.41513 53.5037 12.5007 53.5037 15.9031V30.1623C53.5037 30.6534 53.3056 31.101 52.9809 31.4218Z" fill="#313135"/>
<path id="Vector_6" d="M136.692 28.3798C128.683 28.3798 127.82 20.9174 127.82 17.7091C127.82 17.6735 127.812 17.6418 127.808 17.6101C127.808 17.5784 127.82 17.5467 127.82 17.5111V13.3244H135.144C136.13 13.3244 136.926 12.5283 136.926 11.542C136.926 10.5558 136.13 9.75962 135.144 9.75962H127.82V1.7824C127.82 0.796138 127.024 0 126.038 0C125.051 0 124.255 0.796138 124.255 1.7824V17.5111C124.255 17.5467 124.263 17.5784 124.267 17.6101C124.267 17.6418 124.255 17.6735 124.255 17.7091C124.255 26.4904 129.02 31.9445 136.692 31.9445C137.679 31.9445 138.475 31.1484 138.475 30.1621C138.475 29.1759 137.679 28.3798 136.692 28.3798Z" fill="#FAB00E"/>
<path id="Vector_7" d="M110.919 12.4649H102.078C102.787 3.56876 108.863 3.5648 110.943 3.5648C111.929 3.5648 112.725 2.76866 112.725 1.7824C112.725 0.796138 111.929 0 110.943 0C102.882 0 98.442 5.05805 98.442 14.2354C98.442 14.2711 98.4499 14.3028 98.4539 14.3384C98.4539 14.3741 98.442 14.4057 98.442 14.4414V30.2176C98.442 31.2039 99.2382 32 100.224 32C101.211 32 102.007 31.2039 102.007 30.2176V16.0257H110.919C111.905 16.0257 112.701 15.2296 112.701 14.2433C112.701 13.2571 111.905 12.4609 110.919 12.4609V12.4649Z" fill="#FAB00E"/>
<path id="Vector_8" d="M118.029 8.1953C119.074 8.1953 119.922 7.34764 119.922 6.30199C119.922 5.25635 119.074 4.40869 118.029 4.40869C116.983 4.40869 116.135 5.25635 116.135 6.30199C116.135 7.34764 116.983 8.1953 118.029 8.1953Z" fill="#FAB00E"/>
</g>
</svg>
