<svg width="150" height="44" viewBox="0 0 150 44" fill="none" xmlns="http://www.w3.org/2000/svg">
<path d="M102.979 33.1311C102.884 33.1311 102.787 33.12 102.693 33.0978C102.301 33.0063 101.99 32.7371 101.837 32.3875C101.532 31.752 95.4481 19.6037 93.11 14.9364C92.8018 14.3203 93.0517 13.5683 93.6682 13.2603C94.2846 12.9523 95.0371 13.2021 95.3454 13.8181C95.3454 13.8181 97.5335 18.1857 99.7216 22.5589C100.816 24.7455 101.91 26.9321 102.732 28.5748C102.82 28.7552 102.907 28.9217 102.984 29.0826L110.615 13.8209C110.923 13.2048 111.673 12.9523 112.292 13.2631C112.909 13.5711 113.158 14.3203 112.85 14.9391L104.098 32.443C103.884 32.8731 103.445 33.1339 102.982 33.1339L102.979 33.1311Z" fill="#313135"/>
<path d="M90.2834 14.4008C90.2834 13.7112 89.724 13.1521 89.0339 13.1521C88.3437 13.1521 87.7843 13.7112 87.7843 14.4008V31.8824C87.7843 32.5721 88.3437 33.1311 89.0339 33.1311C89.724 33.1311 90.2834 32.5721 90.2834 31.8824V14.4008Z" fill="#313135"/>
<path d="M130.562 19.5144C130.562 18.7818 129.968 18.188 129.235 18.188C128.502 18.188 127.908 18.7818 127.908 19.5144V31.8042C127.908 32.5368 128.502 33.1306 129.235 33.1306C129.968 33.1306 130.562 32.5368 130.562 31.8042V19.5144Z" fill="#FAB00E"/>
<path d="M63.618 13.5184C63.3903 13.2908 63.0793 13.1521 62.7349 13.1521C62.0435 13.1521 61.4854 13.7098 61.4854 14.4008V24.3903C61.4854 27.8339 58.6836 30.6337 55.2376 30.6337C51.7916 30.6337 48.9898 27.8339 48.9898 24.3903V14.4008C48.9898 14.0567 48.851 13.7431 48.6233 13.5184C48.3956 13.2908 48.0846 13.1521 47.7403 13.1521C47.0489 13.1521 46.4907 13.7098 46.4907 14.4008V24.3903C46.4907 26.7739 47.4432 28.9355 48.9898 30.5116C50.5782 32.1266 52.7913 33.1311 55.2376 33.1311C57.684 33.1311 59.8971 32.1266 61.4854 30.5116C63.032 28.9355 63.9845 26.7739 63.9845 24.3903V14.4008C63.9845 14.0567 63.8456 13.7431 63.618 13.5184Z" fill="#313135"/>
<path d="M83.6332 32.7648C83.4055 32.9924 83.0945 33.1311 82.7502 33.1311C82.0588 33.1311 81.5006 32.5734 81.5006 31.8824V21.8929C81.5006 18.4493 78.6989 15.6495 75.2529 15.6495C71.8069 15.6495 69.0051 18.4493 69.0051 21.8929V31.8824C69.0051 32.2265 68.8663 32.5401 68.6386 32.7648C68.4109 32.9924 68.0999 33.1311 67.7555 33.1311C67.0641 33.1311 66.506 32.5734 66.506 31.8824V21.8929C66.506 19.5093 67.4584 17.3477 69.0051 15.7716C70.5934 14.1566 72.8065 13.1521 75.2529 13.1521C77.6992 13.1521 79.9123 14.1566 81.5006 15.7716C83.0473 17.3477 83.9997 19.5093 83.9997 21.8929V31.8824C83.9997 32.2265 83.8609 32.5401 83.6332 32.7648Z" fill="#313135"/>
<path d="M142.319 30.6338C136.704 30.6338 136.099 25.406 136.099 23.1584C136.099 23.1334 136.094 23.1112 136.091 23.089C136.091 23.0668 136.099 23.0446 136.099 23.0196V20.0866H141.233C141.925 20.0866 142.483 19.5288 142.483 18.8379C142.483 18.147 141.925 17.5892 141.233 17.5892H136.099V12.0006C136.099 11.3097 135.541 10.752 134.85 10.752C134.158 10.752 133.6 11.3097 133.6 12.0006V23.0196C133.6 23.0446 133.606 23.0668 133.608 23.089C133.608 23.1112 133.6 23.1334 133.6 23.1584C133.6 29.3102 136.94 33.1312 142.319 33.1312C143.011 33.1312 143.569 32.5735 143.569 31.8825C143.569 31.1916 143.011 30.6338 142.319 30.6338Z" fill="#FAB00E"/>
<path d="M124.251 19.4844H118.053C118.55 13.2521 122.81 13.2493 124.267 13.2493C124.959 13.2493 125.517 12.6916 125.517 12.0006C125.517 11.3097 124.959 10.752 124.267 10.752C118.617 10.752 115.504 14.2955 115.504 20.7248C115.504 20.7498 115.509 20.772 115.512 20.797C115.512 20.8219 115.504 20.8441 115.504 20.8691V31.9214C115.504 32.6123 116.062 33.1701 116.753 33.1701C117.445 33.1701 118.003 32.6123 118.003 31.9214V21.979H124.251C124.942 21.979 125.5 21.4213 125.5 20.7304C125.5 20.0394 124.942 19.4817 124.251 19.4817V19.4844Z" fill="#FAB00E"/>
<path d="M129.235 16.4926C129.968 16.4926 130.562 15.8988 130.562 15.1662C130.562 14.4337 129.968 13.8398 129.235 13.8398C128.502 13.8398 127.908 14.4337 127.908 15.1662C127.908 15.8988 128.502 16.4926 129.235 16.4926Z" fill="#FAB00E"/>
<path d="M32.6007 21.5165L22.2761 15.3701C21.781 15.0742 21.1592 15.0742 20.658 15.3701L10.3335 21.5165C9.97123 21.7339 9.7901 22.1022 9.7901 22.4765V28.3391C9.7901 28.7135 9.97123 29.0818 10.3335 29.2991L20.658 35.4456C21.1531 35.7414 21.775 35.7414 22.2761 35.4456L32.6007 29.2991C32.9629 29.0818 33.1441 28.7135 33.1441 28.3391V22.4765C33.1441 22.1022 32.9629 21.7339 32.6007 21.5165Z" fill="url(#paint0_linear_781_1828)"/>
<path opacity="0.7" d="M36.7307 20.146L22.5118 28.6049C21.8235 29.0154 20.9722 29.0154 20.2839 28.6049L6.06505 20.146C5.06279 19.5483 5.06279 18.0992 6.06505 17.5075L20.2839 9.04865C20.9722 8.63808 21.8235 8.63808 22.5058 9.04865L36.7247 17.5075C37.7269 18.1052 37.7269 19.5543 36.7247 20.146H36.7307Z" fill="url(#paint1_linear_781_1828)"/>
<defs>
<linearGradient id="paint0_linear_781_1828" x1="21.4671" y1="38.5006" x2="21.4671" y2="12.7437" gradientUnits="userSpaceOnUse">
<stop stop-color="#FEEABE" stop-opacity="0.7"/>
<stop offset="0.59" stop-color="#FAB00E"/>
</linearGradient>
<linearGradient id="paint1_linear_781_1828" x1="17.1624" y1="27.6086" x2="28.6462" y2="3.80789" gradientUnits="userSpaceOnUse">
<stop offset="0.23" stop-color="#FAB00E"/>
<stop offset="0.75" stop-color="#FEEABE" stop-opacity="0.7"/>
</linearGradient>
</defs>
</svg>
